<svg xmlns="http://www.w3.org/2000/svg" xmlns:xlink="http://www.w3.org/1999/xlink" width="500" zoomAndPan="magnify" viewBox="0 0 375 374.999991" height="500" preserveAspectRatio="xMidYMid meet" version="1.0"><defs><g/><clipPath id="3d6b8ae914"><rect x="0" width="258" y="0" height="74"/></clipPath><clipPath id="daaaee2727"><path d="M 121.125 117.171875 L 199.875 117.171875 L 199.875 191.421875 L 121.125 191.421875 Z M 121.125 117.171875 " clip-rule="nonzero"/></clipPath><clipPath id="7c350cc468"><path d="M 0.125 5 L 78 5 L 78 67 L 0.125 67 Z M 0.125 5 " clip-rule="nonzero"/></clipPath><clipPath id="301cb238b5"><rect x="0" width="79" y="0" height="75"/></clipPath><clipPath id="7c624b8268"><path d="M 117 174 L 282 174 L 282 285 L 117 285 Z M 117 174 " clip-rule="nonzero"/></clipPath><clipPath id="6c562d1dc4"><path d="M 134.117188 172.359375 L 281.347656 201.039062 L 265.003906 284.960938 L 117.769531 256.28125 Z M 134.117188 172.359375 " clip-rule="nonzero"/></clipPath><clipPath id="594c434342"><path d="M 0.839844 25 L 164 25 L 164 83 L 0.839844 83 Z M 0.839844 25 " clip-rule="nonzero"/></clipPath><clipPath id="2effc912f2"><path d="M 17.117188 -1.640625 L 164.347656 27.039062 L 148.003906 110.960938 L 0.769531 82.28125 Z M 17.117188 -1.640625 " clip-rule="nonzero"/></clipPath><clipPath id="e71efe0b6d"><path d="M 0.746094 82.410156 L 147.980469 111.085938 L 164.324219 27.164062 L 17.089844 -1.511719 Z M 0.746094 82.410156 " clip-rule="nonzero"/></clipPath><clipPath id="ae2dcb3789"><rect x="0" width="165" y="0" height="111"/></clipPath><clipPath id="eb9905683d"><path d="M 221 156 L 261.410156 156 L 261.410156 190 L 221 190 Z M 221 156 " clip-rule="nonzero"/></clipPath><clipPath id="27f2c790df"><rect x="0" width="214" y="0" height="11"/></clipPath></defs><rect x="-37.5" width="450" fill="#ffffff" y="-37.499999" height="449.999989" rx="225" fill-opacity="1"/><rect x="-37.5" width="450" fill="#ffffff" y="-37.499999" height="449.999989" rx="225" fill-opacity="1"/><g transform="matrix(1, 0, 0, 1, 71, 162)"><g clip-path="url(#3d6b8ae914)"><g fill="#25995c" fill-opacity="1"><g transform="translate(0.318338, 57.956222)"><g><path d="M 16.296875 0.0625 C 13.867188 0.0625 11.734375 -0.289062 9.890625 -1 C 8.421875 -1.582031 6.910156 -2.554688 5.359375 -3.921875 C 3.585938 -5.546875 2.460938 -7.550781 1.984375 -9.9375 C 1.804688 -10.71875 1.71875 -11.492188 1.71875 -12.265625 C 1.675781 -12.523438 1.675781 -12.78125 1.71875 -13.03125 L 1.71875 -13.421875 L 9.28125 -13.3125 L 9.28125 -13.375 C 9.28125 -12.007812 9.578125 -10.882812 10.171875 -10 C 11.273438 -8.34375 13.316406 -7.515625 16.296875 -7.515625 C 21.085938 -7.515625 23.484375 -8.640625 23.484375 -10.890625 C 23.484375 -13.054688 21.015625 -14.414062 16.078125 -14.96875 C 13.242188 -15.300781 10.8125 -15.890625 8.78125 -16.734375 C 6.90625 -17.515625 5.378906 -18.546875 4.203125 -19.828125 C 2.546875 -21.671875 1.71875 -23.8125 1.71875 -26.25 C 1.71875 -27.757812 1.992188 -29.175781 2.546875 -30.5 C 2.953125 -31.488281 3.503906 -32.390625 4.203125 -33.203125 C 6.773438 -36.109375 10.863281 -37.5625 16.46875 -37.5625 C 19.820312 -37.5625 22.65625 -36.898438 24.96875 -35.578125 C 26.738281 -34.585938 28.175781 -33.265625 29.28125 -31.609375 C 30.09375 -30.347656 30.664062 -28.910156 31 -27.296875 C 31.101562 -26.742188 31.175781 -26.191406 31.21875 -25.640625 C 31.25 -25.453125 31.265625 -25.265625 31.265625 -25.078125 L 31.265625 -24.75 L 23.703125 -24.75 L 23.703125 -24.703125 C 23.734375 -25.804688 23.457031 -26.742188 22.875 -27.515625 C 21.695312 -29.171875 19.5625 -30 16.46875 -30 C 14.582031 -30 13.035156 -29.757812 11.828125 -29.28125 C 10.316406 -28.695312 9.5625 -27.847656 9.5625 -26.734375 C 9.5625 -24.453125 12.007812 -23.035156 16.90625 -22.484375 C 22.425781 -21.859375 26.40625 -20.144531 28.84375 -17.34375 C 30.457031 -15.425781 31.265625 -13.273438 31.265625 -10.890625 L 31.265625 -10.390625 C 31.265625 -10.171875 31.25 -9.945312 31.21875 -9.71875 C 31.175781 -9.132812 31.101562 -8.582031 31 -8.0625 C 30.625 -6.59375 29.921875 -5.285156 28.890625 -4.140625 C 27.679688 -2.773438 26.046875 -1.726562 23.984375 -1 C 21.921875 -0.289062 19.359375 0.0625 16.296875 0.0625 Z M 16.296875 0.0625 "/></g></g></g><g fill="#25995c" fill-opacity="1"><g transform="translate(28.05509, 57.956222)"><g><path d="M 29.234375 0 L 26.625 -5.03125 L 13.09375 -5.03125 L 10.5 0 L 0.546875 0 L 19.890625 -35.90625 L 39.171875 0 Z M 23.15625 -11.765625 L 19.890625 -18.0625 L 16.578125 -11.765625 Z M 23.15625 -11.765625 "/></g></g></g><g fill="#25995c" fill-opacity="1"><g transform="translate(65.792739, 57.956222)"><g><path d="M 23.875 -28.171875 L 10.28125 -28.171875 L 10.28125 -21.828125 L 20.390625 -21.828125 L 20.390625 -14.09375 L 10.28125 -14.09375 L 10.28125 0 L 1.65625 0 L 1.65625 -35.90625 L 23.875 -35.90625 Z M 23.875 -28.171875 "/></g></g></g><g fill="#25995c" fill-opacity="1"><g transform="translate(91.31957, 57.956222)"><g><path d="M 31.65625 -23.640625 C 31.65625 -21.328125 31.066406 -19.175781 29.890625 -17.1875 C 28.453125 -14.820312 26.425781 -13.179688 23.8125 -12.265625 L 31.546875 0 L 21.875 0 L 14.359375 -11.4375 L 10.28125 -11.4375 L 10.28125 0 L 1.65625 0 L 1.65625 -35.90625 L 18.84375 -35.90625 C 22.925781 -35.90625 26.164062 -34.5625 28.5625 -31.875 C 30.625 -29.519531 31.65625 -26.773438 31.65625 -23.640625 Z M 10.28125 -28.171875 L 10.28125 -19.171875 L 18.78125 -19.171875 C 19.957031 -19.171875 20.898438 -19.335938 21.609375 -19.671875 C 22.191406 -20.003906 22.613281 -20.316406 22.875 -20.609375 C 23.238281 -21.046875 23.515625 -21.5625 23.703125 -22.15625 C 23.847656 -22.664062 23.921875 -23.160156 23.921875 -23.640625 C 23.921875 -24.160156 23.847656 -24.675781 23.703125 -25.1875 C 23.484375 -25.78125 23.171875 -26.296875 22.765625 -26.734375 C 21.953125 -27.691406 20.644531 -28.171875 18.84375 -28.171875 Z M 10.28125 -28.171875 "/></g></g></g><g fill="#25995c" fill-opacity="1"><g transform="translate(124.637043, 57.956222)"><g><path d="M 29.234375 0 L 26.625 -5.03125 L 13.09375 -5.03125 L 10.5 0 L 0.546875 0 L 19.890625 -35.90625 L 39.171875 0 Z M 23.15625 -11.765625 L 19.890625 -18.0625 L 16.578125 -11.765625 Z M 23.15625 -11.765625 "/></g></g></g><g fill="#25995c" fill-opacity="1"><g transform="translate(164.363864, 57.956222)"><g><path d="M 25.140625 -35.90625 L 33.75 -35.90625 L 33.75 0 L 9.9375 -17.515625 L 9.9375 0 L 1.328125 0 L 1.328125 -35.90625 L 25.140625 -17.5625 Z M 25.140625 -35.90625 "/></g></g></g><g fill="#25995c" fill-opacity="1"><g transform="translate(199.44943, 57.956222)"><g><path d="M 10.28125 -14.09375 L 10.28125 -7.734375 L 26.734375 -7.734375 L 26.734375 0 L 1.65625 0 L 1.65625 -35.90625 L 26.734375 -35.90625 L 26.734375 -28.171875 L 10.28125 -28.171875 L 10.28125 -21.828125 L 24.25 -21.828125 L 24.25 -14.09375 Z M 10.28125 -14.09375 "/></g></g></g><g fill="#25995c" fill-opacity="1"><g transform="translate(226.633796, 57.956222)"><g><path d="M 28.953125 -27.296875 L 19.609375 -27.296875 L 19.609375 0 L 11 0 L 11 -27.296875 L 1.65625 -27.296875 L 1.65625 -35.90625 L 28.953125 -35.90625 Z M 28.953125 -27.296875 "/></g></g></g></g></g><g clip-path="url(#daaaee2727)"><g transform="matrix(1, 0, 0, 1, 121, 117)"><g clip-path="url(#301cb238b5)"><g clip-path="url(#7c350cc468)"><path fill="#25995c" d="M 17.371094 13.40625 C 54.5 13.242188 74.429688 30.488281 76.136719 66.195312 C 76.160156 66.644531 76.816406 66.667969 76.882812 66.222656 C 78.539062 54.558594 78.21875 43.925781 75.242188 34.683594 C 65.417969 4.179688 27.957031 0.179688 1.375 9.832031 C 0.0507812 10.3125 -0.214844 12.015625 0.886719 12.890625 C 21.617188 29.386719 18.796875 74.414062 69.261719 54.898438 C 61.378906 30.527344 45.222656 15.421875 17.371094 13.40625 " fill-opacity="1" fill-rule="evenodd"/></g></g></g></g><g clip-path="url(#7c624b8268)"><g clip-path="url(#6c562d1dc4)"><g transform="matrix(1, 0, 0, 1, 117, 174)"><g clip-path="url(#ae2dcb3789)"><g clip-path="url(#594c434342)"><g clip-path="url(#2effc912f2)"><g clip-path="url(#e71efe0b6d)"><path fill="#ffffff" d="M 158.957031 29.035156 C 157.804688 28.898438 156.648438 28.785156 155.503906 28.6875 L 153.324219 28.519531 L 150.816406 28.355469 L 150.378906 28.269531 C 149.253906 28.195312 148.117188 28.15625 146.984375 28.117188 L 145.863281 28.097656 L 143.007812 28.050781 L 141.644531 28.054688 C 140.632812 28.039062 139.613281 28.058594 138.609375 28.082031 L 138.488281 28.058594 C 137.234375 28.066406 135.976562 28.113281 134.710938 28.175781 L 134.378906 28.109375 C 133.117188 28.15625 131.851562 28.234375 130.582031 28.332031 C 129.3125 28.429688 128.15625 28.492188 126.894531 28.628906 C 125.636719 28.765625 124.925781 28.789062 123.917969 28.921875 C 122.914062 29.050781 122.066406 29.121094 121.066406 29.234375 C 120.0625 29.347656 119.210938 29.4375 118.402344 29.585938 C 117.230469 29.738281 116.074219 29.914062 114.910156 30.105469 C 113.75 30.292969 112.363281 30.515625 111.152344 30.769531 C 109.945312 31.023438 108.933594 31.171875 107.824219 31.390625 C 106.410156 31.660156 104.992188 31.960938 103.589844 32.269531 C 102.1875 32.578125 101.105469 32.820312 99.886719 33.125 C 98.664062 33.433594 97.429688 33.71875 96.207031 34.042969 C 94.984375 34.367188 93.78125 34.675781 92.570312 35.019531 C 91.359375 35.363281 90.214844 35.667969 89.035156 36.035156 C 84.265625 37.429688 79.609375 38.988281 75.109375 40.578125 C 73.980469 40.976562 72.871094 41.363281 71.78125 41.746094 C 58.882812 46.816406 46.449219 52.839844 34.472656 59.816406 L 32.105469 61.167969 C 27.441406 63.886719 23.207031 66.527344 19.484375 68.976562 L 17.65625 70.179688 C 14.105469 72.570312 11.058594 74.714844 8.5625 76.53125 L 6.597656 77.964844 C 4.683594 79.40625 3.230469 80.535156 2.320312 81.300781 L 1.421875 81.996094 L 0.882812 82.4375 L 3.648438 68.246094 C 32.429688 48.898438 96.507812 13.785156 163.71875 29.527344 L 161.949219 29.308594 C 160.910156 29.25 159.988281 29.144531 158.957031 29.035156 Z M 158.957031 29.035156 " fill-opacity="1" fill-rule="nonzero"/></g></g></g></g></g></g></g><g clip-path="url(#eb9905683d)"><path fill="#25995c" d="M 252.367188 161.273438 C 233.273438 161.1875 223.023438 170.246094 222.144531 189 C 222.132812 189.238281 221.796875 189.25 221.761719 189.015625 C 220.910156 182.890625 221.074219 177.304688 222.605469 172.449219 C 227.65625 156.425781 246.921875 154.324219 260.59375 159.398438 C 261.273438 159.648438 261.414062 160.542969 260.847656 161.003906 C 250.183594 169.667969 251.636719 193.316406 225.679688 183.070312 C 229.734375 170.265625 238.046875 162.332031 252.367188 161.273438 " fill-opacity="1" fill-rule="evenodd"/></g><g transform="matrix(1, 0, 0, 1, 96, 226)"><g clip-path="url(#27f2c790df)"><g fill="#25995c" fill-opacity="1"><g transform="translate(0.437073, 8.043993)"><g><path d="M 4.4375 -2.890625 C 4.800781 -2.804688 5.082031 -2.644531 5.28125 -2.40625 C 5.488281 -2.175781 5.59375 -1.875 5.59375 -1.5 C 5.59375 -1.019531 5.414062 -0.648438 5.0625 -0.390625 C 4.707031 -0.128906 4.179688 0 3.484375 0 L 0.90625 0 L 0.90625 -5.59375 L 3.328125 -5.59375 C 3.953125 -5.59375 4.4375 -5.46875 4.78125 -5.21875 C 5.125 -4.96875 5.296875 -4.613281 5.296875 -4.15625 C 5.296875 -3.851562 5.21875 -3.59375 5.0625 -3.375 C 4.914062 -3.15625 4.707031 -2.992188 4.4375 -2.890625 Z M 1.5 -5.109375 L 1.5 -3.078125 L 3.28125 -3.078125 C 3.738281 -3.078125 4.085938 -3.160156 4.328125 -3.328125 C 4.578125 -3.503906 4.703125 -3.757812 4.703125 -4.09375 C 4.703125 -4.425781 4.578125 -4.675781 4.328125 -4.84375 C 4.085938 -5.019531 3.738281 -5.109375 3.28125 -5.109375 Z M 3.484375 -0.484375 C 3.984375 -0.484375 4.359375 -0.566406 4.609375 -0.734375 C 4.867188 -0.910156 5 -1.179688 5 -1.546875 C 5 -2.242188 4.492188 -2.59375 3.484375 -2.59375 L 1.5 -2.59375 L 1.5 -0.484375 Z M 3.484375 -0.484375 "/></g></g></g><g fill="#25995c" fill-opacity="1"><g transform="translate(12.869162, 8.043993)"><g><path d="M 0.90625 -5.59375 L 1.5 -5.59375 L 1.5 -0.515625 L 4.640625 -0.515625 L 4.640625 0 L 0.90625 0 Z M 0.90625 -5.59375 "/></g></g></g><g fill="#25995c" fill-opacity="1"><g transform="translate(23.869237, 8.043993)"><g><path d="M 3.359375 0.046875 C 2.804688 0.046875 2.300781 -0.078125 1.84375 -0.328125 C 1.394531 -0.578125 1.046875 -0.914062 0.796875 -1.34375 C 0.546875 -1.769531 0.421875 -2.253906 0.421875 -2.796875 C 0.421875 -3.335938 0.546875 -3.820312 0.796875 -4.25 C 1.046875 -4.6875 1.394531 -5.023438 1.84375 -5.265625 C 2.300781 -5.515625 2.804688 -5.640625 3.359375 -5.640625 C 3.910156 -5.640625 4.410156 -5.515625 4.859375 -5.265625 C 5.304688 -5.023438 5.65625 -4.6875 5.90625 -4.25 C 6.164062 -3.820312 6.296875 -3.335938 6.296875 -2.796875 C 6.296875 -2.253906 6.164062 -1.765625 5.90625 -1.328125 C 5.65625 -0.898438 5.304688 -0.5625 4.859375 -0.3125 C 4.410156 -0.0703125 3.910156 0.046875 3.359375 0.046875 Z M 3.359375 -0.484375 C 3.804688 -0.484375 4.207031 -0.582031 4.5625 -0.78125 C 4.914062 -0.976562 5.191406 -1.253906 5.390625 -1.609375 C 5.597656 -1.960938 5.703125 -2.359375 5.703125 -2.796875 C 5.703125 -3.234375 5.597656 -3.628906 5.390625 -3.984375 C 5.191406 -4.335938 4.914062 -4.613281 4.5625 -4.8125 C 4.207031 -5.019531 3.804688 -5.125 3.359375 -5.125 C 2.921875 -5.125 2.519531 -5.019531 2.15625 -4.8125 C 1.789062 -4.613281 1.503906 -4.335938 1.296875 -3.984375 C 1.097656 -3.628906 1 -3.234375 1 -2.796875 C 1 -2.359375 1.097656 -1.960938 1.296875 -1.609375 C 1.503906 -1.253906 1.789062 -0.976562 2.15625 -0.78125 C 2.519531 -0.582031 2.921875 -0.484375 3.359375 -0.484375 Z M 3.359375 -0.484375 "/></g></g></g><g fill="#25995c" fill-opacity="1"><g transform="translate(36.981331, 8.043993)"><g><path d="M 3.34375 0.046875 C 2.789062 0.046875 2.289062 -0.0703125 1.84375 -0.3125 C 1.394531 -0.5625 1.046875 -0.898438 0.796875 -1.328125 C 0.546875 -1.765625 0.421875 -2.253906 0.421875 -2.796875 C 0.421875 -3.335938 0.546875 -3.820312 0.796875 -4.25 C 1.046875 -4.6875 1.394531 -5.023438 1.84375 -5.265625 C 2.289062 -5.515625 2.796875 -5.640625 3.359375 -5.640625 C 3.765625 -5.640625 4.144531 -5.570312 4.5 -5.4375 C 4.851562 -5.300781 5.15625 -5.097656 5.40625 -4.828125 L 5.03125 -4.453125 C 4.59375 -4.898438 4.039062 -5.125 3.375 -5.125 C 2.925781 -5.125 2.519531 -5.019531 2.15625 -4.8125 C 1.789062 -4.613281 1.503906 -4.335938 1.296875 -3.984375 C 1.097656 -3.628906 1 -3.234375 1 -2.796875 C 1 -2.359375 1.097656 -1.960938 1.296875 -1.609375 C 1.503906 -1.265625 1.789062 -0.988281 2.15625 -0.78125 C 2.519531 -0.582031 2.925781 -0.484375 3.375 -0.484375 C 4.039062 -0.484375 4.59375 -0.707031 5.03125 -1.15625 L 5.40625 -0.78125 C 5.15625 -0.507812 4.851562 -0.300781 4.5 -0.15625 C 4.144531 -0.0195312 3.757812 0.046875 3.34375 0.046875 Z M 3.34375 0.046875 "/></g></g></g><g fill="#25995c" fill-opacity="1"><g transform="translate(49.13342, 8.043993)"><g><path d="M 2.640625 -2.625 L 1.5 -1.46875 L 1.5 0 L 0.90625 0 L 0.90625 -5.59375 L 1.5 -5.59375 L 1.5 -2.21875 L 4.796875 -5.59375 L 5.46875 -5.59375 L 3.046875 -3.0625 L 5.640625 0 L 4.9375 0 Z M 2.640625 -2.625 "/></g></g></g><g fill="#25995c" fill-opacity="1"><g transform="translate(61.0215, 8.043993)"><g><path d="M 3.34375 0.046875 C 2.789062 0.046875 2.289062 -0.0703125 1.84375 -0.3125 C 1.394531 -0.5625 1.046875 -0.898438 0.796875 -1.328125 C 0.546875 -1.765625 0.421875 -2.253906 0.421875 -2.796875 C 0.421875 -3.335938 0.546875 -3.820312 0.796875 -4.25 C 1.046875 -4.6875 1.394531 -5.023438 1.84375 -5.265625 C 2.289062 -5.515625 2.796875 -5.640625 3.359375 -5.640625 C 3.765625 -5.640625 4.144531 -5.570312 4.5 -5.4375 C 4.851562 -5.300781 5.15625 -5.097656 5.40625 -4.828125 L 5.03125 -4.453125 C 4.59375 -4.898438 4.039062 -5.125 3.375 -5.125 C 2.925781 -5.125 2.519531 -5.019531 2.15625 -4.8125 C 1.789062 -4.613281 1.503906 -4.335938 1.296875 -3.984375 C 1.097656 -3.628906 1 -3.234375 1 -2.796875 C 1 -2.359375 1.097656 -1.960938 1.296875 -1.609375 C 1.503906 -1.265625 1.789062 -0.988281 2.15625 -0.78125 C 2.519531 -0.582031 2.925781 -0.484375 3.375 -0.484375 C 4.039062 -0.484375 4.59375 -0.707031 5.03125 -1.15625 L 5.40625 -0.78125 C 5.15625 -0.507812 4.851562 -0.300781 4.5 -0.15625 C 4.144531 -0.0195312 3.757812 0.046875 3.34375 0.046875 Z M 3.34375 0.046875 "/></g></g></g><g fill="#25995c" fill-opacity="1"><g transform="translate(73.173589, 8.043993)"><g><path d="M 5.59375 -5.59375 L 5.59375 0 L 5.015625 0 L 5.015625 -2.578125 L 1.5 -2.578125 L 1.5 0 L 0.90625 0 L 0.90625 -5.59375 L 1.5 -5.59375 L 1.5 -3.109375 L 5.015625 -3.109375 L 5.015625 -5.59375 Z M 5.59375 -5.59375 "/></g></g></g><g fill="#25995c" fill-opacity="1"><g transform="translate(86.077685, 8.043993)"><g><path d="M 4.421875 -1.5 L 1.296875 -1.5 L 0.625 0 L 0.015625 0 L 2.578125 -5.59375 L 3.15625 -5.59375 L 5.71875 0 L 5.09375 0 Z M 4.203125 -1.96875 L 2.859375 -4.984375 L 1.515625 -1.96875 Z M 4.203125 -1.96875 "/></g></g></g><g fill="#25995c" fill-opacity="1"><g transform="translate(98.213772, 8.043993)"><g><path d="M 0.90625 -5.59375 L 1.5 -5.59375 L 1.5 0 L 0.90625 0 Z M 0.90625 -5.59375 "/></g></g></g><g fill="#25995c" fill-opacity="1"><g transform="translate(107.029818, 8.043993)"><g><path d="M 5.59375 -5.59375 L 5.59375 0 L 5.109375 0 L 1.5 -4.546875 L 1.5 0 L 0.90625 0 L 0.90625 -5.59375 L 1.40625 -5.59375 L 5.015625 -1.0625 L 5.015625 -5.59375 Z M 5.59375 -5.59375 "/></g></g></g><g fill="#25995c" fill-opacity="1"><g transform="translate(119.933914, 8.043993)"><g/></g></g><g fill="#25995c" fill-opacity="1"><g transform="translate(128.429961, 8.043993)"><g><path d="M 5.59375 -5.59375 L 5.59375 0 L 5.109375 0 L 1.5 -4.546875 L 1.5 0 L 0.90625 0 L 0.90625 -5.59375 L 1.40625 -5.59375 L 5.015625 -1.0625 L 5.015625 -5.59375 Z M 5.59375 -5.59375 "/></g></g></g><g fill="#25995c" fill-opacity="1"><g transform="translate(141.334057, 8.043993)"><g><path d="M 3.359375 0.046875 C 2.804688 0.046875 2.300781 -0.078125 1.84375 -0.328125 C 1.394531 -0.578125 1.046875 -0.914062 0.796875 -1.34375 C 0.546875 -1.769531 0.421875 -2.253906 0.421875 -2.796875 C 0.421875 -3.335938 0.546875 -3.820312 0.796875 -4.25 C 1.046875 -4.6875 1.394531 -5.023438 1.84375 -5.265625 C 2.300781 -5.515625 2.804688 -5.640625 3.359375 -5.640625 C 3.910156 -5.640625 4.410156 -5.515625 4.859375 -5.265625 C 5.304688 -5.023438 5.65625 -4.6875 5.90625 -4.25 C 6.164062 -3.820312 6.296875 -3.335938 6.296875 -2.796875 C 6.296875 -2.253906 6.164062 -1.765625 5.90625 -1.328125 C 5.65625 -0.898438 5.304688 -0.5625 4.859375 -0.3125 C 4.410156 -0.0703125 3.910156 0.046875 3.359375 0.046875 Z M 3.359375 -0.484375 C 3.804688 -0.484375 4.207031 -0.582031 4.5625 -0.78125 C 4.914062 -0.976562 5.191406 -1.253906 5.390625 -1.609375 C 5.597656 -1.960938 5.703125 -2.359375 5.703125 -2.796875 C 5.703125 -3.234375 5.597656 -3.628906 5.390625 -3.984375 C 5.191406 -4.335938 4.914062 -4.613281 4.5625 -4.8125 C 4.207031 -5.019531 3.804688 -5.125 3.359375 -5.125 C 2.921875 -5.125 2.519531 -5.019531 2.15625 -4.8125 C 1.789062 -4.613281 1.503906 -4.335938 1.296875 -3.984375 C 1.097656 -3.628906 1 -3.234375 1 -2.796875 C 1 -2.359375 1.097656 -1.960938 1.296875 -1.609375 C 1.503906 -1.253906 1.789062 -0.976562 2.15625 -0.78125 C 2.519531 -0.582031 2.921875 -0.484375 3.359375 -0.484375 Z M 3.359375 -0.484375 "/></g></g></g><g fill="#25995c" fill-opacity="1"><g transform="translate(154.446151, 8.043993)"><g/></g></g><g fill="#25995c" fill-opacity="1"><g transform="translate(162.942198, 8.043993)"><g><path d="M 4.421875 -1.5 L 1.296875 -1.5 L 0.625 0 L 0.015625 0 L 2.578125 -5.59375 L 3.15625 -5.59375 L 5.71875 0 L 5.09375 0 Z M 4.203125 -1.96875 L 2.859375 -4.984375 L 1.515625 -1.96875 Z M 4.203125 -1.96875 "/></g></g></g><g fill="#25995c" fill-opacity="1"><g transform="translate(174.998299, 8.043993)"><g><path d="M 4.859375 -2.796875 L 5.421875 -2.796875 L 5.421875 -0.65625 C 5.160156 -0.425781 4.847656 -0.25 4.484375 -0.125 C 4.128906 -0.0078125 3.757812 0.046875 3.375 0.046875 C 2.8125 0.046875 2.304688 -0.0703125 1.859375 -0.3125 C 1.410156 -0.5625 1.054688 -0.898438 0.796875 -1.328125 C 0.546875 -1.765625 0.421875 -2.253906 0.421875 -2.796875 C 0.421875 -3.335938 0.546875 -3.820312 0.796875 -4.25 C 1.054688 -4.6875 1.410156 -5.023438 1.859375 -5.265625 C 2.304688 -5.515625 2.8125 -5.640625 3.375 -5.640625 C 3.800781 -5.640625 4.191406 -5.570312 4.546875 -5.4375 C 4.910156 -5.300781 5.210938 -5.101562 5.453125 -4.84375 L 5.09375 -4.46875 C 4.644531 -4.90625 4.082031 -5.125 3.40625 -5.125 C 2.945312 -5.125 2.535156 -5.019531 2.171875 -4.8125 C 1.804688 -4.613281 1.519531 -4.335938 1.3125 -3.984375 C 1.101562 -3.628906 1 -3.234375 1 -2.796875 C 1 -2.359375 1.101562 -1.960938 1.3125 -1.609375 C 1.519531 -1.265625 1.804688 -0.988281 2.171875 -0.78125 C 2.535156 -0.582031 2.941406 -0.484375 3.390625 -0.484375 C 3.960938 -0.484375 4.453125 -0.625 4.859375 -0.90625 Z M 4.859375 -2.796875 "/></g></g></g><g fill="#25995c" fill-opacity="1"><g transform="translate(187.582376, 8.043993)"><g><path d="M 4.734375 0 L 3.453125 -1.796875 C 3.304688 -1.785156 3.160156 -1.78125 3.015625 -1.78125 L 1.5 -1.78125 L 1.5 0 L 0.90625 0 L 0.90625 -5.59375 L 3.015625 -5.59375 C 3.722656 -5.59375 4.28125 -5.421875 4.6875 -5.078125 C 5.09375 -4.742188 5.296875 -4.28125 5.296875 -3.6875 C 5.296875 -3.25 5.179688 -2.878906 4.953125 -2.578125 C 4.734375 -2.273438 4.421875 -2.054688 4.015625 -1.921875 L 5.390625 0 Z M 2.984375 -2.28125 C 3.546875 -2.28125 3.972656 -2.398438 4.265625 -2.640625 C 4.554688 -2.890625 4.703125 -3.238281 4.703125 -3.6875 C 4.703125 -4.132812 4.554688 -4.476562 4.265625 -4.71875 C 3.972656 -4.96875 3.546875 -5.09375 2.984375 -5.09375 L 1.5 -5.09375 L 1.5 -2.28125 Z M 2.984375 -2.28125 "/></g></g></g><g fill="#25995c" fill-opacity="1"><g transform="translate(199.766467, 8.043993)"><g><path d="M 3.359375 0.046875 C 2.804688 0.046875 2.300781 -0.078125 1.84375 -0.328125 C 1.394531 -0.578125 1.046875 -0.914062 0.796875 -1.34375 C 0.546875 -1.769531 0.421875 -2.253906 0.421875 -2.796875 C 0.421875 -3.335938 0.546875 -3.820312 0.796875 -4.25 C 1.046875 -4.6875 1.394531 -5.023438 1.84375 -5.265625 C 2.300781 -5.515625 2.804688 -5.640625 3.359375 -5.640625 C 3.910156 -5.640625 4.410156 -5.515625 4.859375 -5.265625 C 5.304688 -5.023438 5.65625 -4.6875 5.90625 -4.25 C 6.164062 -3.820312 6.296875 -3.335938 6.296875 -2.796875 C 6.296875 -2.253906 6.164062 -1.765625 5.90625 -1.328125 C 5.65625 -0.898438 5.304688 -0.5625 4.859375 -0.3125 C 4.410156 -0.0703125 3.910156 0.046875 3.359375 0.046875 Z M 3.359375 -0.484375 C 3.804688 -0.484375 4.207031 -0.582031 4.5625 -0.78125 C 4.914062 -0.976562 5.191406 -1.253906 5.390625 -1.609375 C 5.597656 -1.960938 5.703125 -2.359375 5.703125 -2.796875 C 5.703125 -3.234375 5.597656 -3.628906 5.390625 -3.984375 C 5.191406 -4.335938 4.914062 -4.613281 4.5625 -4.8125 C 4.207031 -5.019531 3.804688 -5.125 3.359375 -5.125 C 2.921875 -5.125 2.519531 -5.019531 2.15625 -4.8125 C 1.789062 -4.613281 1.503906 -4.335938 1.296875 -3.984375 C 1.097656 -3.628906 1 -3.234375 1 -2.796875 C 1 -2.359375 1.097656 -1.960938 1.296875 -1.609375 C 1.503906 -1.253906 1.789062 -0.976562 2.15625 -0.78125 C 2.519531 -0.582031 2.921875 -0.484375 3.359375 -0.484375 Z M 3.359375 -0.484375 "/></g></g></g></g></g></svg>